# xmcd
#
# Track frame offsets: 
#        150
#        42362
#        70486
#        96736
#        121922
#        144621
#        164502
#        184694
#        202956
#        251181
#        313945
#
# Disc length: 4670 seconds
#
# Revision: 1
# Processed by: cddbd v1.5.2PL0 Copyright (c) Steve Scherf et al.
# Submitted via: ExactAudioCopy v0.99pb4
#
DISCID=ad123c0b
DTITLE=Dr. John - Live At Montreux
DYEAR=2005
DGENRE=Blues
TTITLE0=Iko Iko
TTITLE1=Renegade
TTITLE2=Come On (Let The Good Times Roll)
TTITLE3=Tell Me You'll Wait For Me
TTITLE4=Blue Skies
TTITLE5=Gee Baby Ain't I Good To You
TTITLE6=Right Place, Wrong Time
TTITLE7=Makin' Whoopee
TTITLE8=Goin' Back To New Orleans
TTITLE9=The Big Bass Drum (On A Mardi Gras Day)/I Shall Not Be Moved
TTITLE10=Mess Around
EXTD=
EXTT0=
EXTT1=
EXTT2=
EXTT3=
EXTT4=
EXTT5=
EXTT6=
EXTT7=
EXTT8=
EXTT9=
EXTT10=
PLAYORDER=
